<svg width="64" height="64" viewBox="0 0 64 64" fill="none" xmlns="http://www.w3.org/2000/svg">
<rect x="0.5" y="0.5" width="63" height="63" rx="31.5" fill="white"/>
<rect x="0.5" y="0.5" width="63" height="63" rx="31.5" stroke="#1E4448"/>
<path d="M40 41H38V39C38 38.2044 37.6839 37.4413 37.1213 36.8787C36.5587 36.3161 35.7956 36 35 36H29C28.2044 36 27.4413 36.3161 26.8787 36.8787C26.3161 37.4413 26 38.2044 26 39V41H24V39C24 37.6739 24.5268 36.4021 25.4645 35.4645C26.4021 34.5268 27.6739 34 29 34H35C36.3261 34 37.5979 34.5268 38.5355 35.4645C39.4732 36.4021 40 37.6739 40 39V41ZM32 32C31.2121 32 30.4319 31.8448 29.7039 31.5433C28.9759 31.2417 28.3145 30.7998 27.7574 30.2426C27.2002 29.6855 26.7583 29.0241 26.4567 28.2961C26.1552 27.5681 26 26.7879 26 26C26 25.2121 26.1552 24.4319 26.4567 23.7039C26.7583 22.9759 27.2002 22.3145 27.7574 21.7574C28.3145 21.2002 28.9759 20.7583 29.7039 20.4567C30.4319 20.1552 31.2121 20 32 20C33.5913 20 35.1174 20.6321 36.2426 21.7574C37.3679 22.8826 38 24.4087 38 26C38 27.5913 37.3679 29.1174 36.2426 30.2426C35.1174 31.3679 33.5913 32 32 32V32ZM32 30C33.0609 30 34.0783 29.5786 34.8284 28.8284C35.5786 28.0783 36 27.0609 36 26C36 24.9391 35.5786 23.9217 34.8284 23.1716C34.0783 22.4214 33.0609 22 32 22C30.9391 22 29.9217 22.4214 29.1716 23.1716C28.4214 23.9217 28 24.9391 28 26C28 27.0609 28.4214 28.0783 29.1716 28.8284C29.9217 29.5786 30.9391 30 32 30V30Z" fill="#5BCCD9"/>
</svg>
