<svg width="64" height="64" viewBox="0 0 64 64" fill="none" xmlns="http://www.w3.org/2000/svg">
<rect x="0.5" y="0.5" width="63" height="63" rx="31.5" fill="white"/>
<path d="M32 22C33.8565 22 35.6369 22.7375 36.9497 24.0503C38.2625 25.363 39 27.1435 39 29H40.074C40.3258 29 40.5684 29.0951 40.7533 29.2662C40.9381 29.4373 41.0516 29.6719 41.071 29.923L41.917 40.923C41.9374 41.1874 41.8519 41.4491 41.6794 41.6505C41.5068 41.8519 41.2614 41.9766 40.997 41.997L40.92 42H23.08C22.8147 42 22.5604 41.8946 22.3728 41.7071C22.1853 41.5196 22.08 41.2652 22.08 41L22.083 40.923L22.929 29.923C22.9484 29.6719 23.0618 29.4373 23.2466 29.2662C23.4315 29.0951 23.6741 29 23.926 29H25C25 27.1435 25.7375 25.363 27.0502 24.0503C28.363 22.7375 30.1434 22 32 22V22ZM39.147 31H24.852L24.159 40H39.84L39.147 31ZM34 33V35H30V33H34ZM32 24C30.7115 24.0001 29.4728 24.4975 28.5422 25.3887C27.6116 26.2798 27.0609 27.4958 27.005 28.783L27 29H37C36.9999 27.7115 36.5024 26.4728 35.6113 25.5422C34.7202 24.6116 33.5042 24.0609 32.217 24.005L32 24Z" fill="#5BCCD9"/>
<rect x="0.5" y="0.5" width="63" height="63" rx="31.5" stroke="#1E4448"/>
</svg>
